<?xml version="1.0" encoding="utf-8"?>
<!-- Generator: Adobe Illustrator 28.1.0, SVG Export Plug-In . SVG Version: 6.00 Build 0)  -->
<svg version="1.1" id="mask" xmlns="http://www.w3.org/2000/svg" xmlns:xlink="http://www.w3.org/1999/xlink" x="0px" y="0px"
	 viewBox="0 0 613.6 235.6" style="enable-background:new 0 0 613.6 235.6;" xml:space="preserve">
<g>
	<path d="M313.5-3v-1.2H-2.4v22.6H55c8.7,9.2,17.5,18.3,21.4,24.5c2.5-2.6,11.5-6.6,12.8-8c0.7-0.7,8.1-11.3,11.8-16.5h31.3
		c-0.8,2.5,0.7,7.2,1.9,11.9H102l8.6,6.3h24.8c0.2,2.2,0,4.1-1.1,5.3c-1.3,1.4-4.1,0.1-5,1.7H-2.4v22.6h93.6c-1.5,1.1-3,2.2-4.1,3
		H-2.4v22.6h42.5v4.4h13.3c-0.4,0.3-0.8,0.6-1.1,0.9c0,8.3,0.1,16.6,0.1,24.9H-2.4v22.6h54.9c0,0.9,0,1.8,0,2.7H48v6H-2.4v22.6h32.7
		V174h55.4h31.6h33.3h9.5H173h16.9h5.8h20.9h49.1h17.6h12.6h4.9h21.1h22.4h5h40.9h29.9c-2.8-3.4-9.6-4.9-12.4-8.8
		c-0.3-0.4-0.5-0.8-0.8-1.2h42.4c0.3,2.5,0.2,5,0.9,6.5c1.4,2.9,5.2,2,7.3,4.9c0.2,0.2,0.3,0.4,0.4,0.6H424v6.9h-5.2h-25.6h-12
		h-28.5H311h-10.4h-26.2c-1.4,1.1-3.6,2.3-5.8,3.1h-9.1c0-0.1,0-0.3,0-0.4c0.7-0.9,1.5-1.8,2.5-2.7h-25.2c-0.2,0.3-0.5,0.5-0.7,0.8
		c-0.3,0-0.5,0-0.8,0c-3.6-0.1-7.4,1.1-13.3,1.1c-0.5-0.6-0.9-1.3-1.3-1.9h-14.2c-2.5-0.4-4.6-0.8-5.2-1.1
		c-6.3-2.2,13.7-4.6,13.2-5.5c0-0.1-0.2-0.2-0.5-0.3c-0.3-0.2-0.9-0.4-1.5-0.5c-1.9,0-3.9,0-5.8,0.1c-4.3,0.1-8.6,0.3-12.8,0.4
		c-5.5,0.2-10.9,0.5-16.3,0.8c-6.6,0.4-13.1,0.8-19.6,1.3c-4.2,0.3-8.4,0.6-12.6,1c-4.9,0.4-9.8,0.8-14.7,1.1
		c-4.3,0.3-8.5,0.6-12.9,0.9c-9.3,0.6-18.8,1.1-28.4,1.3c-8.7,0.2-17.6,0.1-26.5-0.3c-4.6-0.2-9.2-0.5-13.6-0.9
		c0.3,0.5,0.5,1.1,0.7,1.6c0.3,0.8,0.5,1.6,0.9,2.5H-2.4v0.6V203v5.1v0.6v16.9h36.5v-16.9v-0.6v-3h18.4h40.8c-4.6,1-9.9,1.9-11.6,3
		c-0.3,0.2-0.5,0.4-0.5,0.6c-0.1,0.7,1.6,1.4,6,2.3c1.2,0.2,2.2,0.4,3.2,0.5c5.1,0.7,6.9,0.1,7.3-1c0.2-0.5,0.1-1.2-0.1-1.8
		c-0.1-0.2-0.1-0.4-0.2-0.6c-0.2-0.5-0.4-1-0.3-1.4c2.4-0.4,5.5,0.3,8.7,1.4c0.6,0.2,1.2,0.4,1.7,0.6c5.3,2.1,10.3,4.9,12.4,5.4
		c3.9,0.9,9.1,0.5,13.9,1.1c0.4,0.1,0.9,0.1,1.3,0.2c12.3,1.6,7.6,2.5,10.2,4.2c0.2,0.2,0.5,0.3,0.9,0.5c0.9,0.4,2.3,0.8,4,1.3
		c4.9,1.3,12,2.9,15,4.3c0.9,0.4,1.4,0.8,1.3,1.2c0,0,0,0.1-0.1,0.1c-0.2,0.3-1.4,0.7-3.3,1.2H71.7v11.3h37
		c-16.9,3.3-31.9,6.3-35.9,7.5l11,6.9c9.4,1.9,16.9,5.9,31.4,6c3.6-0.3-17.9-3-17.7-4.7c0.1-0.6,6.8-2.4,8.1-3.2
		c6.7-0.1,10,1,14,1.9l3.7-0.4c-1.5-0.9-6.7-5.9-7.8-6.3c-1.2-0.2-5.4,0.4-7.5,0.1c-5.6-0.8-12.6-4.4-4.2-5c8.9-0.5,8.6,1.9,11,2.7
		c34.3,10.8,16.3,0.6,20.3-1.8c7.3-4.6,25.7,1.2,39.7,1.8c6.9,0.3,13.5-0.9,19.4-1.2c2.8-0.1,6.5,0.8,10,0.1
		c3.5-0.6,3.1-3.3,4.5-4.5h68.2c1,0.3,2,0.6,3.1,1c7.2,2.6-6.8,2-7.5,2.3c-3.3,0.8-5.4,1.9-5.2,3c0.8,0.2,15.8-2.2,15.2-0.3
		c-0.3,0.9-23.1,1.1-2.6,4.4l6.1-1.7c10.8,0.8-1.4,2.8,4.6,4.2c2.8-0.5,6-0.9,8.7-0.9c0.1-4,0.2-8,0.2-12h272.1v-18.1h-7.1
		c0.5-6.5,0.9-13,1.3-19.5h-87.3c1.2,2.2,2.8,5.5,2.4,8.5c-0.8,5.5-3.4,9.3-6.1,11h-6.4c-2.4-2.1-3.2-7.3,0.2-15.8
		c-6.5-0.4-11.1,8.3-11.5,15.8h-43.9c5-6.7,12.1-13.4,16.4-19.5H423h-3.4h-4.8c-3.4,1.9-7.6,2.3-11,1.2v-1.2h-2.4H349h-14.3h-35.2
		c0-2.9,0-5.9,0-8.8h5.5h7.2h65.5h3.4h13.7h3.3h5.7h16.9h5.5h7h13.1h35.4h84.4H650v-16.9h-82.9c0.2-4,0.4-8,0.6-12h39.8v-22.6h-38.8
		c0-1.3,0.1-2.5,0.1-3.8h15.1V131H569c0.1-2.3,0.1-4.7,0.2-7h46.3v-22.6h-45.3c0.1-2.9,0.2-5.9,0.3-8.8h79.6V69.9h-79
		c0-1.7,0.1-3.4,0.1-5.1h47.3v-6.7h-47.1c0-0.9,0.1-1.9,0.1-2.8c-2.1-0.9-3.3-2.7-4-4.9H650v-13h0.1V19.7v-5V-3H313.5z M84.7,147.4
		H59.8c0-0.9,0.1-1.8,0.2-2.7h27.1C86.3,145.6,85.5,146.5,84.7,147.4z M166.8,208.7c-0.4,0.7-1.5,1.1-3.7,1.1
		c-1.2-0.5-2.6-0.8-4.1-1.1c-0.1,0-0.1,0-0.2,0c-1.4-0.3-3-0.4-4.6-0.6c-4.3-0.4-8.8-0.7-12.5-1.4c-1.5-0.3-2.9-0.7-4-1.2
		c-0.3-0.1-0.6-0.3-0.8-0.4h6.2h16h5.7c1.3,1.1,2.1,2.2,2.1,3C166.9,208.3,166.9,208.5,166.8,208.7z M212.2,228.1
		c0-0.4,0.4-0.7,1.2-0.6c1.6,0.2,2.8,0.4,3.7,0.6H212.2z M223.2,205.6c-0.7,0.2-1.3,0.4-1.8,0.6c-1.5,0.6-2.5,1.2-3.4,1.9l0,0
		c-0.3,0.2-0.7,0.4-1,0.6c-2.5,1.5-6.6,2.9-20.6,3.7c-1.2,0.1-2.4,0.1-3.6,0c-6.1-0.3-11.1-2.1-10.4-3.7c0.1-0.2,0.3-0.4,0.7-0.6
		c0.9-0.5,2.6-0.9,5.2-1.2c0.6,0.1,1.5,0.3,2.5,0.5c1.3,0.2,2.8,0.5,4.3,0.7c2.6,0.3,5.4,0.4,7.5,0c0.6-0.1,7-1.9,10.6-3h1h8.5h2.9
		C224.8,205.2,224,205.4,223.2,205.6z M287.3,195c-4.2,0.6-11.7,0-14.7,0.5c-3.2,0.6,0.5,2.3-6.4,2.8c-0.7,0-5-0.1-9.9-0.4v-5H293
		C290.7,193.6,290.9,194.5,287.3,195z M395.1,210.8c9,1.1,16.5,1.9,18.1,1.8c-1.6,2.9-3.3,5.7-5,8.5c-0.1,0.1-0.1,0.2-0.2,0.3h-20.9
		c0.4-0.9,0.8-1.9,1.5-2.7C388.9,218.2,396.6,213.2,395.1,210.8z M299.7,213.3c1.4,0.4,2.6,0.7,3.5,0.4c3.1-1,5-3.7,6.8-5h3
		c3.3,1.7,9.2,6.7,11.7,6.1c3.4-0.7,5.4-3.3,6.9-6.1h48.1c3.7,0.5,7.6,1,11.3,1.5c-3.9,1.7-12.6,6.6-20.4,11.1h-70.9
		C299.7,218.7,299.7,216,299.7,213.3z M123.1,66.2c-1.5,1.2-3.5,2-5.6,3h-9.2l-2-3H123.1z M386.2,164.1v3.5v0.6h-37h-45.6h-6.4
		h-12.7h-6.1h-59.6H211h-36.7h-16.6h-31.4h-24.7v-9.8h35.3h41.7H201h27.3h5.6h8.7h47.7h1.6h57.3H381h5.1v5.7H386.2z M108.9,144.7
		h5.8C112.5,145.4,110.3,145.9,108.9,144.7z M121.5,144.7h57v2.7h-54.8C123.1,146.4,122.4,145.5,121.5,144.7z M345.8,126.6l-9.8,1.7
		l-1.6-4.3h23.2c-0.6,3.7-0.9,8.1-7.3,10.5C342.7,137.3,346.8,127.7,345.8,126.6z M379.6,118.3h-4.8h-12.9H338h-30.9H303h-3.4h-7.1
		H186.6H174c0.3,0.7,1,2.1,1.9,3.8H138c0.6-1.2,1.3-2.5,2-3.8h-8.2c0.7,1.1,0.9,2.5,1,3.8H120c-0.5-0.4-1-0.9-1.6-1.3
		c-2.4-1.8-4.4-0.7-6.1,1.3H91.7c0.8-1.3,1.7-2.5,2.5-3.6c0.1-0.1,0.1-0.1,0.2-0.2H93v-8.8h15.6c4.1-5.9,6.5-18.9,13.3-6.6
		c1.1,2,1.3,4.4,1.6,6.6h18.7c-2.4-3.5-7.7-8.1-2.6-13.2h26.2c1.5,1.1,2.7,2.4,3.7,3.8c1.8,2.6,2.3,6,2.7,9.4h14.4h3.9h13.7h100h4.7
		h45h22.6h0.1h8.6h2.5h9.8H427h59.8v8.8h-58.7L379.6,118.3L379.6,118.3z M186.9,96.3H205c0.1,1.6,0.3,3.4,0.4,5.1h-18.8v3.9
		C186,103,186.6,100.1,186.9,96.3z M232.5,69.3c1.1-0.2,2.3-0.2,3.5,0H232.5z M309.3,92.5h18.4c-0.9,0.8-1.8,1.6-2.7,2.2
		c-0.8,0.5-4.1-1.5-6.9,0c-0.8,0.4-2.9,1.6-5.4,3.1L309.3,92.5z M361.7,101.4c2.4-2.9,4.9-6.2,7.4-8.8h6.6c0.6,2.9,0.9,5.9,1.1,8.8
		H361.7z M486.6,92.5c2.6,3.3,5,6.3,7.1,8.8h-63.1c0.2-0.2,0.3-0.4,0.5-0.6c5.3-7.1-4.7-4.6-8.2-4.7c-0.7-1,0.2-2.2,1.8-3.4h61.9
		L486.6,92.5L486.6,92.5z M451.6,69.9c1.7-1.7,3.7-3.7,5.5-5.1h6.6c1.3,1.2,2.9,2.9,4.7,5.1H451.6z M490.4,69.9c0.9-1.6,2-3.4,3-5.1
		h28.5c-0.1,1.7-0.1,3.4-0.2,5.1H490.4z M514.2,101.4h-0.7c0.1-0.2,0.3-0.3,0.4-0.5C514,101.1,514.1,101.2,514.2,101.4z M510.2,92.5
		c-0.1,0.1-0.2,0.2-0.3,0.3c-0.2-0.1-0.3-0.2-0.5-0.3H510.2z M499,92.5c-2.5,2.1-7.4,3.7-8.2,0.4c0-0.2-0.1-0.3-0.1-0.4H499z
		 M425.1,69.3H409c1.7-1.6,4.7-3.2,7.8-4.4h11.6C426.7,66,425.8,67.6,425.1,69.3z M416.1,94.4c2.3,1.2,4.4,4.7,6.8,7H398
		c0.2-2.8,0.9-5.4,3.4-7.1C403.5,92.9,413.8,93.3,416.1,94.4z M502.7,141.5h-93.8c0.4-1.2,0.8-2.5,1.1-3.8h98.9
		C506.9,139,504.8,140.3,502.7,141.5z M518,131H411.6c0.4-2.4,0.5-4.8,0-7h113.1C522.9,126.4,520.6,128.8,518,131z M522.3,53.6
		c0,1.5-0.1,3-0.2,4.5H496c0-1.6-0.5-3.1-1.1-4.5h-63.3c-2.3,2.3-6.3,3.1-8.3,0H365c1.1,5.3,2.5,10.5,4,15.6h-74.6l-1.7-2.7
		c-1.9,1.2-3.8,2-5.6,2.7h-13.5c-1.2-0.7-1.9-1.7-2.1-3H336V53.6h-54.8h-70.6h-13.3h-41.5v-8.8H195h10.9h68.6h42h1.1h15.9h2.6h27.7
		h6.2h7h47h8h61.5h29.1h3.4h23.6v1.4v4.3v3.1h-1c0.2,1.2,0.5,2.8,0.9,4.5H531c-0.6-1.4-1.3-3-1.9-4.5H522.3z M533.5,64.8H551
		c0.4,1.7,0.8,3.4,1.2,5.1h-20C533.1,68.2,533.7,66.5,533.5,64.8z M545.5,167.2c-2.3,3.6-6.2,0.4-8.3-3.1h8
		C545.9,165.2,546.1,166.3,545.5,167.2z M529.1,101.4c0.4-2.7,1.3-5.8,2.3-8.8H552c0.7,2.8,1.9,5.8,3.5,8.8H529.1z M608.6,19.7v8.2
		v9.5v4.3h-41.7H552h-26.4h-2.9H483h-53h-9.7h-41.2h-12h-3.6h-30v1.9h-14.8l1.8-1.9h-7.1c0.9,0.4,1.9,0.9,2.6,1.9h-43l-1.5-1.2
		c-0.1-0.3-0.1-0.5-0.2-0.8H204c0.4,0.6,0.8,1.3,1.2,1.9h-10.5c-0.1-0.7-0.3-1.3-0.4-1.9h-14.6v-5.1v-6.3v-9.8
		c-0.3-0.2-0.7-0.4-1.1-0.5c-1.2-0.6-2.3-1.1-3.4-1.5h28.1c-0.1,0.2-0.2,0.4-0.3,0.5h52.6c0-0.2-0.1-0.3-0.1-0.5h12.8V19h24.5h16.4
		H335h71.2h16.2h8h52.2h40h42.9h42.9v0.7H608.6z"/>
</g>
</svg>
