<?xml version="1.0" encoding="utf-8"?>
<!-- Generator: Adobe Illustrator 28.1.0, SVG Export Plug-In . SVG Version: 6.00 Build 0)  -->
<svg version="1.1" id="Layer_1" xmlns="http://www.w3.org/2000/svg" xmlns:xlink="http://www.w3.org/1999/xlink" x="0px" y="0px"
	 viewBox="0 0 500 500" style="enable-background:new 0 0 500 500;" xml:space="preserve">
<g>
	<path d="M500,60.9V0H0v74.2h84.3V80H44.4v6.1h39.9v6.1H0V500h251.3v-6H217v-2.7h34.3v-2h210.2v-3.1H251.3v-1.2h214.9V500H500v-76.1
		h-72.8v-10.7H500V270H260.4v-11.5h140.4v-2.3h69.5v2.3H500V75.8H285.1V61.2h-47.3v-3.4h192.4v3.1H500z M224.4,456h-38.8v-1.9H54.3
		V474h57.6v13.5H32.7V456H32v-3.4h0.7v-7.1h79.1v7.1h112.6V456z M361.6,399H232.9v4.9H102.7v3.1h130.1v5h26v3.4H66.5v-2.9H18v-14.9
		h191.7v-8.8h151.9V399z M79.8,133.8v-1.7h92.9v1.4h23.4v7.2h-92.6v4.3H30.3v-5h62.1v-6.2H79.8z M32.8,226.7V224h69.5v2.7H32.8z
		 M69.7,347.6v8.6H49.9v-8.6H69.7z M110.5,270v-11.5H124V270H110.5z M458.8,335.5v3.1H181.4v-3.1H458.8z M201.3,266.3v3.7h-18.2
		v-3.7H201.3z M183.1,262.2v-3.7h18.2v3.7H183.1z M360.8,204h-22.9v-8.7H85.6v-1.9H180v0.6h180.7V204z M217.4,163.9v-2.7h69.5v2.7
		H217.4z M458.3,212.1H379v-1.4h79.3V212.1z M416.1,116.8h39.6V134h-10.3v-5.7H342v2.7h-61.1v-10.3h135.2V116.8z M301,101.9v3.1
		H23.6v-3.1H301z M415.6,24.1H26.1V12.6h389.5V24.1z"/>
	<rect x="283.8" y="261.6" width="103.4" height="6.1"/>
</g>
</svg>
