<?xml version="1.0" encoding="utf-8"?>
<!-- Generator: Adobe Illustrator 28.1.0, SVG Export Plug-In . SVG Version: 6.00 Build 0)  -->
<svg version="1.1" id="Layer_1" xmlns="http://www.w3.org/2000/svg" xmlns:xlink="http://www.w3.org/1999/xlink" x="0px" y="0px"
	 viewBox="0 0 500 500" style="enable-background:new 0 0 500 500;" xml:space="preserve">
<g>
	<g>
		<rect x="26.1" y="12.6" width="389.5" height="11.5"/>
	</g>
	<g>
		<rect x="23.6" y="101.9" width="277.5" height="3.1"/>
	</g>
	<g>
		<rect x="217.4" y="161.2" width="69.5" height="2.7"/>
	</g>
	<g>
		<rect x="379" y="210.7" width="79.3" height="1.4"/>
	</g>
	<g>
		<rect x="32.8" y="224" width="69.5" height="2.7"/>
	</g>
	<g>
		<path d="M470.3,256.2h-69.5v2.3H260.4V270H500v-11.5h-29.7V256.2z M387.2,267.7H283.8v-6.1h103.4V267.7z"/>
	</g>
	<g>
		<rect x="49.9" y="347.6" width="19.8" height="8.6"/>
	</g>
	<g>
		<polygon points="84.3,86.1 44.4,86.1 44.4,80 84.3,80 84.3,74.2 0,74.2 0,92.3 84.3,92.3 		"/>
	</g>
	<g>
		<rect x="427.2" y="413.2" width="72.8" height="10.7"/>
	</g>
	<g>
		<rect x="181.4" y="335.5" width="277.5" height="3.1"/>
	</g>
	<g>
		<polygon points="30.3,140 30.3,145 103.6,145 103.6,140.7 196.1,140.7 196.1,133.5 172.8,133.5 172.8,132.1 79.8,132.1 
			79.8,133.8 92.4,133.8 92.4,140 		"/>
	</g>
	<g>
		<polygon points="430.3,60.9 430.3,57.8 237.9,57.8 237.9,61.2 285.1,61.2 285.1,75.8 500,75.8 500,60.9 		"/>
	</g>
	<g>
		<polygon points="416.1,120.6 280.9,120.6 280.9,131 342,131 342,128.3 445.4,128.3 445.4,134 455.8,134 455.8,116.8 416.1,116.8 
					"/>
	</g>
	<g>
		<polygon points="224.4,456 224.4,452.5 111.9,452.5 111.9,445.4 32.7,445.4 32.7,452.5 32,452.5 32,456 32.7,456 32.7,487.5 
			111.9,487.5 111.9,474 54.3,474 54.3,454.1 185.6,454.1 185.6,456 		"/>
	</g>
	<g>
		<rect x="110.5" y="258.5" width="13.5" height="11.5"/>
	</g>
	<g>
		<polygon points="360.8,204 360.8,194 180,194 180,193.4 85.6,193.4 85.6,195.3 337.8,195.3 337.8,204 		"/>
	</g>
	<g>
		<rect x="183.1" y="258.5" width="18.2" height="3.7"/>
	</g>
	<g>
		<rect x="183.1" y="266.3" width="18.2" height="3.7"/>
	</g>
	<g>
		<polygon points="66.5,415.4 258.9,415.4 258.9,411.9 232.9,411.9 232.9,407 102.7,407 102.7,403.9 232.9,403.9 232.9,399 
			361.6,399 361.6,388.7 209.7,388.7 209.7,397.5 18,397.5 18,412.4 66.5,412.4 		"/>
	</g>
	<g>
		<polygon points="251.3,486.2 461.5,486.2 461.5,489.3 251.3,489.3 251.3,491.3 217,491.3 217,494 251.3,494 251.3,500 466.1,500 
			466.1,485.1 251.3,485.1 		"/>
	</g>
</g>
</svg>
